<svg width="181" height="200" viewBox="0 0 181 200" fill="none" xmlns="http://www.w3.org/2000/svg">
<g clip-path="url(#clip0_983_2694)">
<path d="M180.611 128.564L168.266 120.426V129.72L180.611 133.16V128.564Z" fill="#A50E0E"/>
<path d="M0 128.564L12.346 120.426V129.72L0 133.16V128.564Z" fill="#A50E0E"/>
<path d="M12.3457 50V150L90.3057 200L168.266 150V50L90.3057 0L12.3457 50Z" fill="#ECB20C"/>
<path d="M62.0007 82.737L90.3057 21.565V0L12.3457 50L62.0007 82.737Z" fill="url(#paint0_linear_983_2694)"/>
<path d="M127.188 120.426L90.3057 178.435V200L168.266 150L151.453 139.217L127.188 120.426Z" fill="url(#paint1_linear_983_2694)"/>
<path d="M88.9577 152.825L29.1577 139.217L12.3457 150L90.3057 200V178.435L88.9577 152.825Z" fill="url(#paint2_linear_983_2694)"/>
<path d="M91.6377 48.085L151.453 60.783L168.266 50L90.3057 0V21.565L91.6377 48.085Z" fill="url(#paint3_linear_983_2694)"/>
<path d="M64.6957 117.781L31.6817 62.544L12.3457 50V150L29.1577 139.217L64.6957 117.781Z" fill="url(#paint4_linear_983_2694)"/>
<path d="M115.915 117.781L148.929 62.544L168.266 50V150L151.453 139.217L115.915 117.781Z" fill="url(#paint5_linear_983_2694)"/>
<path d="M29.1582 60.7829V139.217L90.3062 178.435L151.453 139.217V60.7829L90.3062 21.5649L29.1582 60.7829Z" fill="url(#paint6_linear_983_2694)"/>
<path d="M58.484 155.521H7.766C3.477 155.521 0 152.044 0 147.755V127.999H50.089C54.725 127.999 58.484 131.757 58.484 136.394V155.521Z" fill="url(#paint7_linear_983_2694)"/>
<path d="M172.845 157.241H122.127V138.114C122.127 133.478 125.885 129.719 130.522 129.719H180.611V149.475C180.611 153.764 177.134 157.241 172.845 157.241Z" fill="url(#paint8_linear_983_2694)"/>
<path d="M137.688 171.002H42.9231C40.5921 171.002 38.7031 169.112 38.7031 166.782V137.38C38.7031 135.049 40.5931 133.16 42.9231 133.16H137.689C140.02 133.16 141.909 135.05 141.909 137.38V166.782C141.909 169.113 140.019 171.002 137.688 171.002Z" fill="url(#paint9_linear_983_2694)"/>
<path d="M90.3062 179.603C105.506 179.603 117.828 167.281 117.828 152.081C117.828 136.881 105.506 124.559 90.3062 124.559C75.1062 124.559 62.7842 136.881 62.7842 152.081C62.7842 167.281 75.1062 179.603 90.3062 179.603Z" fill="#F6F6F8"/>
<path d="M90.3061 174.391C102.628 174.391 112.616 164.402 112.616 152.081C112.616 139.76 102.628 129.771 90.3061 129.771C77.9846 129.771 67.9961 139.76 67.9961 152.081C67.9961 164.402 77.9846 174.391 90.3061 174.391Z" fill="url(#paint10_linear_983_2694)"/>
<path d="M90.3062 135.417L95.7202 146.388L107.828 148.147L99.0672 156.687L101.135 168.745L90.3062 163.052L79.4762 168.745L81.5452 156.687L72.7842 148.147L84.8912 146.388L90.3062 135.417Z" fill="#DCE8F1"/>
<path d="M90.3062 135.417L91.0102 151.728L95.7202 146.388L101.774 147.267L107.828 148.147L91.0102 151.728L99.0672 156.687L100.101 162.716L101.135 168.745L91.0102 151.728L90.3062 163.052L84.8912 165.899L79.4762 168.745L91.0102 151.728L81.5452 156.687L77.1642 152.417L72.7842 148.147L91.0102 151.728L84.8912 146.388L87.5982 140.902L90.3062 135.417Z" fill="#8CA4CD"/>
<path d="M45.9792 61.053L47.4542 55.152C47.6432 54.395 48.0352 53.703 48.5872 53.151C49.1392 52.599 49.8312 52.207 50.5882 52.018L56.4892 50.543C56.6482 50.503 56.6482 50.277 56.4892 50.238L50.5882 48.763C49.8312 48.574 49.1392 48.182 48.5872 47.63C48.0352 47.078 47.6432 46.386 47.4542 45.629L45.9792 39.728C45.9392 39.569 45.7132 39.569 45.6742 39.728L44.1992 45.629C44.0102 46.386 43.6182 47.078 43.0662 47.63C42.5142 48.182 41.8222 48.574 41.0652 48.763L35.1642 50.238C35.0052 50.278 35.0052 50.504 35.1642 50.543L41.0652 52.018C41.8222 52.207 42.5142 52.599 43.0662 53.151C43.6182 53.703 44.0102 54.395 44.1992 55.152L45.6742 61.053C45.7142 61.212 45.9402 61.212 45.9792 61.053Z" fill="white"/>
<path d="M151.073 125.779L152.179 121.353C152.321 120.785 152.615 120.266 153.029 119.852C153.443 119.438 153.962 119.144 154.53 119.002L158.956 117.895C159.075 117.865 159.075 117.696 158.956 117.666L154.53 116.559C153.962 116.417 153.443 116.123 153.029 115.709C152.615 115.295 152.321 114.776 152.179 114.208L151.073 109.782C151.043 109.663 150.874 109.663 150.844 109.782L149.738 114.208C149.596 114.776 149.302 115.295 148.888 115.709C148.474 116.123 147.955 116.417 147.387 116.559L142.961 117.666C142.842 117.696 142.842 117.865 142.961 117.895L147.387 119.002C147.955 119.144 148.474 119.438 148.888 119.852C149.302 120.266 149.596 120.785 149.738 121.353L150.844 125.779C150.874 125.898 151.043 125.898 151.073 125.779Z" fill="white"/>
</g>
<defs>
<linearGradient id="paint0_linear_983_2694" x1="51.2431" y1="24.8986" x2="62.4301" y2="38.7134" gradientUnits="userSpaceOnUse">
<stop stop-color="#CFE1EF"/>
<stop offset="1" stop-color="#E9F2F6"/>
</linearGradient>
<linearGradient id="paint1_linear_983_2694" x1="128.058" y1="173.311" x2="119.664" y2="160.421" gradientUnits="userSpaceOnUse">
<stop stop-color="#85A0BF"/>
<stop offset="1" stop-color="#C1D4E5"/>
</linearGradient>
<linearGradient id="paint2_linear_983_2694" x1="49.8024" y1="176.969" x2="68.6795" y2="152.567" gradientUnits="userSpaceOnUse">
<stop stop-color="#85A0BF"/>
<stop offset="1" stop-color="#E7F0F5"/>
</linearGradient>
<linearGradient id="paint3_linear_983_2694" x1="130.048" y1="24.214" x2="116.063" y2="39.1432" gradientUnits="userSpaceOnUse">
<stop stop-color="#85A0BF"/>
<stop offset="1" stop-color="#C1D4E5"/>
</linearGradient>
<linearGradient id="paint4_linear_983_2694" x1="12.3453" y1="100" x2="31.9003" y2="100" gradientUnits="userSpaceOnUse">
<stop stop-color="#85A0BF"/>
<stop offset="1" stop-color="#C1D4E5"/>
</linearGradient>
<linearGradient id="paint5_linear_983_2694" x1="168.266" y1="100" x2="149.007" y2="100" gradientUnits="userSpaceOnUse">
<stop stop-color="#85A0BF"/>
<stop offset="1" stop-color="#C1D4E5"/>
</linearGradient>
<linearGradient id="paint6_linear_983_2694" x1="90.3058" y1="178.435" x2="90.3058" y2="21.5652" gradientUnits="userSpaceOnUse">
<stop stop-color="#8AA2CC"/>
<stop offset="1" stop-color="#EBF4F7"/>
</linearGradient>
<linearGradient id="paint7_linear_983_2694" x1="0" y1="141.76" x2="58.4836" y2="141.76" gradientUnits="userSpaceOnUse">
<stop stop-color="#BE4244"/>
<stop offset="1" stop-color="#D33730"/>
</linearGradient>
<linearGradient id="paint8_linear_983_2694" x1="122.128" y1="143.48" x2="180.611" y2="143.48" gradientUnits="userSpaceOnUse">
<stop stop-color="#BE4244"/>
<stop offset="1" stop-color="#D33730"/>
</linearGradient>
<linearGradient id="paint9_linear_983_2694" x1="90.3057" y1="171.002" x2="90.3057" y2="133.16" gradientUnits="userSpaceOnUse">
<stop stop-color="#FF544A"/>
<stop offset="1" stop-color="#F7726E"/>
</linearGradient>
<linearGradient id="paint10_linear_983_2694" x1="90.3057" y1="174.391" x2="90.3057" y2="129.771" gradientUnits="userSpaceOnUse">
<stop stop-color="#B8D0E3"/>
<stop offset="1" stop-color="#D8E6F1"/>
</linearGradient>
<clipPath id="clip0_983_2694">
<rect width="180.611" height="200" fill="white"/>
</clipPath>
</defs>
</svg>
